# Blender 4.5.2 LTS
# www.blender.org
mtllib Rock.mtl
o ICO球
v 0.000000 -0.219357 0.000000
v 0.723607 -0.265989 0.525725
v -0.276388 -0.250144 0.850649
v -0.894426 -0.210725 0.000000
v -0.275474 -0.179977 -0.842197
v 0.723607 -0.171330 -0.525725
v 0.276388 0.447220 0.987751
v -0.723607 0.447220 0.525725
v -0.723607 0.447220 -0.600935
v 0.276388 0.447220 -0.850649
v 0.894426 0.447216 0.000000
v 0.000000 1.087459 0.000000
v -0.162456 -0.231601 0.499995
v 0.425323 -0.244069 0.309011
v 0.262869 -0.239658 0.809012
v 0.850648 -0.274179 0.000000
v 0.483870 -0.261863 -0.120077
v -0.525730 -0.228030 0.000000
v -0.688189 -0.232893 0.499997
v -0.060173 -0.226462 -0.320024
v -0.688189 -0.198667 -0.499997
v 0.262869 -0.166520 -0.809012
v 0.951058 0.113805 0.309013
v 0.951058 0.359552 -0.309013
v 0.000000 0.058184 1.000000
v 0.587786 0.392167 0.809017
v -0.951058 0.139714 0.309013
v -0.587786 0.291518 0.809017
v -0.587786 0.183448 -0.809017
v -0.951058 0.268734 -0.309013
v 0.587786 0.000000 -0.809017
v 0.000000 0.444225 -1.000000
v 0.688189 0.525736 0.499997
v -0.359495 0.590343 0.959006
v -0.850648 0.525736 0.000000
v -0.262869 0.525738 -0.809012
v 0.688189 0.525736 -0.499997
v 0.162456 0.993733 0.499995
v 0.656088 0.764707 0.000000
v -0.425323 0.899686 0.309011
v -0.671800 0.762071 -0.384113
v 0.162456 0.931229 -0.694065
vn -0.0326 -0.9989 -0.0350
vn -0.0720 -0.9974 -0.0018
vn 0.0165 -0.9997 -0.0191
vn 0.0165 -0.9997 0.0191
vn -0.0784 -0.9962 0.0369
vn 0.8871 -0.4054 0.2207
vn 0.0766 -0.4894 0.8687
vn -0.8428 -0.4261 0.3288
vn -0.5670 -0.4227 -0.7070
vn 0.3637 -0.7096 -0.6035
vn 0.7746 -0.1083 0.6231
vn -0.3533 -0.1319 0.9262
vn -0.9904 -0.1352 -0.0282
vn -0.2536 -0.1304 -0.9585
vn 0.8495 -0.1586 -0.5032
vn 0.5494 0.6172 0.5632
vn -0.6853 0.6282 0.3684
vn -0.9199 0.3135 -0.2354
vn -0.0297 0.3013 -0.9531
vn 0.7784 0.5844 -0.2293
vn 0.4393 0.8930 -0.0982
vn 0.6494 0.7015 -0.2936
vn 0.5599 0.3714 -0.7407
vn -0.2878 0.9177 -0.2739
vn -0.3826 0.6004 -0.7022
vn -0.4183 0.5609 -0.7145
vn -0.4218 0.9062 -0.0299
vn -0.6997 0.7061 0.1086
vn -0.7390 0.6169 0.2707
vn -0.2321 0.9396 0.2515
vn -0.2785 0.8560 0.4356
vn 0.1190 0.6748 0.7283
vn 0.4413 0.8970 0.0248
vn 0.6343 0.7126 0.2998
vn 0.7784 0.5844 0.2293
vn 0.5906 0.7983 -0.1182
vn 0.6729 0.2751 -0.6867
vn 0.5746 0.3304 -0.7488
vn 0.1213 0.9622 -0.2437
vn -0.4439 0.4214 -0.7908
vn -0.4325 0.4106 -0.8027
vn -0.7710 0.5899 -0.2401
vn -0.9527 0.2975 0.0621
vn -0.8553 0.4406 0.2725
vn -0.7750 0.3179 0.5463
vn -0.3672 -0.1777 0.9130
vn -0.0328 0.0547 0.9980
vn 0.4084 0.7820 0.4707
vn 0.8406 0.3414 0.4207
vn 0.8620 0.4155 0.2903
vn 0.4594 0.2403 -0.8551
vn 0.1262 -0.2462 -0.9610
vn 0.0660 -0.2718 -0.9601
vn -0.8034 0.0541 -0.5929
vn -0.8056 -0.2299 -0.5461
vn -0.8671 -0.3382 -0.3658
vn -0.8188 0.2371 0.5229
vn -0.7568 -0.2181 0.6161
vn -0.6250 -0.3040 0.7190
vn 0.4388 -0.2849 0.8522
vn 0.4079 -0.2098 0.8886
vn 0.4958 -0.2550 0.8301
vn 0.9606 0.2584 0.1027
vn 0.9784 -0.1923 -0.0765
vn 0.9190 -0.2807 -0.2770
vn 0.0913 -0.9820 -0.1652
vn -0.0160 -0.9911 -0.1320
vn 0.0311 -0.9944 -0.1013
vn -0.0212 -0.9966 -0.0800
vn -0.0302 -0.9984 -0.0488
vn -0.0468 -0.9980 -0.0434
vn -0.0469 -0.9986 -0.0249
vn 0.0025 -1.0000 -0.0089
vn 0.0025 -0.9986 -0.0520
vn 0.0324 -0.9794 -0.1994
vn -0.0451 -0.9984 0.0353
vn -0.0800 -0.9963 0.0304
vn 0.0157 -0.9987 -0.0477
vn -0.0205 -0.9998 0.0022
vn -0.0645 -0.9978 -0.0122
vt 0.181819 0.000000
vt 0.227273 0.078731
vt 0.136365 0.078731
vt 0.272728 0.157461
vt 0.318182 0.078731
vt 0.363637 0.157461
vt 0.909091 0.000000
vt 0.954545 0.078731
vt 0.863636 0.078731
vt 0.727273 0.000000
vt 0.772727 0.078731
vt 0.681818 0.078731
vt 0.545455 0.000000
vt 0.590909 0.078731
vt 0.500000 0.078731
vt 0.318182 0.236191
vt 0.090910 0.157461
vt 0.181819 0.157461
vt 0.136365 0.236191
vt 0.818182 0.157461
vt 0.909091 0.157461
vt 0.863636 0.236191
vt 0.636364 0.157461
vt 0.727273 0.157461
vt 0.681818 0.236191
vt 0.454546 0.157461
vt 0.545455 0.157461
vt 0.500000 0.236191
vt 0.227273 0.236191
vt 0.045455 0.236191
vt 0.772727 0.236191
vt 0.590909 0.236191
vt 0.409092 0.236191
vt 0.181819 0.314921
vt 0.272728 0.314921
vt 0.227273 0.393651
vt 0.000000 0.314921
vt 0.090910 0.314921
vt 0.045455 0.393651
vt 0.727273 0.314921
vt 0.818182 0.314921
vt 0.772727 0.393651
vt 0.545455 0.314921
vt 0.636364 0.314921
vt 0.590909 0.393651
vt 0.363637 0.314921
vt 0.454546 0.314921
vt 0.409092 0.393651
vt 0.500000 0.393651
vt 0.454546 0.472382
vt 0.681818 0.393651
vt 0.636364 0.472382
vt 0.863636 0.393651
vt 0.818182 0.472382
vt 0.909091 0.314921
vt 0.136365 0.393651
vt 0.090910 0.472382
vt 0.318182 0.393651
vt 0.272728 0.472382
vt 0.954545 0.236191
vt 1.000000 0.157461
vt 0.409092 0.078731
vt 0.363637 0.000000
s 0
usemtl マテリアル.001
f 1/1/1 14/2/1 13/3/1
f 2/4/2 14/5/2 16/6/2
f 1/7/3 13/8/3 18/9/3
f 1/10/4 18/11/4 20/12/4
f 1/13/5 20/14/5 17/15/5
f 2/4/6 16/6/6 23/16/6
f 3/17/7 15/18/7 25/19/7
f 4/20/8 19/21/8 27/22/8
f 5/23/9 21/24/9 29/25/9
f 6/26/10 22/27/10 31/28/10
f 2/4/11 23/16/11 26/29/11
f 3/17/12 25/19/12 28/30/12
f 4/20/13 27/22/13 30/31/13
f 5/23/14 29/25/14 32/32/14
f 6/26/15 31/28/15 24/33/15
f 7/34/16 33/35/16 38/36/16
f 8/37/17 34/38/17 40/39/17
f 9/40/18 35/41/18 41/42/18
f 10/43/19 36/44/19 42/45/19
f 11/46/20 37/47/20 39/48/20
f 39/48/21 42/49/21 12/50/21
f 39/48/22 37/47/22 42/49/22
f 37/47/23 10/43/23 42/49/23
f 42/45/24 41/51/24 12/52/24
f 42/45/25 36/44/25 41/51/25
f 36/44/26 9/40/26 41/51/26
f 41/42/27 40/53/27 12/54/27
f 41/42/28 35/41/28 40/53/28
f 35/41/29 8/55/29 40/53/29
f 40/39/30 38/56/30 12/57/30
f 40/39/31 34/38/31 38/56/31
f 34/38/32 7/34/32 38/56/32
f 38/36/33 39/58/33 12/59/33
f 38/36/34 33/35/34 39/58/34
f 33/35/35 11/46/35 39/58/35
f 24/33/36 37/47/36 11/46/36
f 24/33/37 31/28/37 37/47/37
f 31/28/38 10/43/38 37/47/38
f 32/32/39 36/44/39 10/43/39
f 32/32/40 29/25/40 36/44/40
f 29/25/41 9/40/41 36/44/41
f 30/31/42 35/41/42 9/40/42
f 30/31/43 27/22/43 35/41/43
f 27/22/44 8/55/44 35/41/44
f 28/30/45 34/38/45 8/37/45
f 28/30/46 25/19/46 34/38/46
f 25/19/47 7/34/47 34/38/47
f 26/29/48 33/35/48 7/34/48
f 26/29/49 23/16/49 33/35/49
f 23/16/50 11/46/50 33/35/50
f 31/28/51 32/32/51 10/43/51
f 31/28/52 22/27/52 32/32/52
f 22/27/53 5/23/53 32/32/53
f 29/25/54 30/31/54 9/40/54
f 29/25/55 21/24/55 30/31/55
f 21/24/56 4/20/56 30/31/56
f 27/22/57 28/60/57 8/55/57
f 27/22/58 19/21/58 28/60/58
f 19/21/59 3/61/59 28/60/59
f 25/19/60 26/29/60 7/34/60
f 25/19/61 15/18/61 26/29/61
f 15/18/62 2/4/62 26/29/62
f 23/16/63 24/33/63 11/46/63
f 23/16/64 16/6/64 24/33/64
f 16/6/65 6/26/65 24/33/65
f 17/15/66 22/27/66 6/26/66
f 17/15/67 20/14/67 22/27/67
f 20/14/68 5/23/68 22/27/68
f 20/12/69 21/24/69 5/23/69
f 20/12/70 18/11/70 21/24/70
f 18/11/71 4/20/71 21/24/71
f 18/9/72 19/21/72 4/20/72
f 18/9/73 13/8/73 19/21/73
f 13/8/74 3/61/74 19/21/74
f 16/6/75 17/62/75 6/26/75
f 16/6/76 14/5/76 17/62/76
f 14/5/77 1/63/77 17/62/77
f 13/3/78 15/18/78 3/17/78
f 13/3/79 14/2/79 15/18/79
f 14/2/80 2/4/80 15/18/80
