# Blender 4.5.2 LTS
# www.blender.org
mtllib Stone.mtl
o Icosphere
v 0.000000 0.669992 0.000000
v 0.723607 0.733789 0.525725
v -0.276388 0.912456 0.694123
v -0.690831 0.751123 0.000000
v -0.276388 0.733788 -0.850649
v 0.723607 0.733789 -0.525725
v 0.276388 1.538179 0.769792
v -0.723607 1.628228 0.525725
v -0.723607 1.628228 -0.927261
v 0.276388 1.802936 -1.001924
v 1.209077 1.628224 0.000000
v 0.000000 2.209052 0.000000
v -0.162456 0.645171 0.499995
v 0.425323 0.716008 0.309011
v 0.262869 0.655271 0.809012
v 0.850648 0.655272 0.000000
v 0.425323 0.718347 -0.309011
v -0.525730 0.671757 0.000000
v -0.688189 0.655272 0.499997
v -0.162456 0.705206 -0.499995
v -0.688189 0.655272 -0.499997
v 0.262869 0.655271 -0.809012
v 0.969767 1.181008 0.309013
v 0.951058 1.181008 -0.661754
v 0.000000 1.181008 1.000000
v 0.587786 1.181008 0.809017
v -0.951058 1.181008 0.309013
v -0.587786 1.181008 0.519385
v -0.587786 1.181008 -0.809017
v -1.083938 1.230122 -0.309013
v 0.587786 1.181008 -0.809017
v 0.000000 1.181008 -1.000000
v 0.928027 1.706744 0.672460
v -0.377513 1.579349 0.929717
v -0.999138 1.706744 0.000000
v -0.262869 1.706746 -1.141470
v 0.688189 1.706744 -0.652808
v 0.461760 1.683772 0.499995
v 0.855656 1.772852 0.000000
v -0.524671 1.740893 0.580989
v -0.425323 2.031662 -0.309011
v 0.162456 2.031662 -0.499995
vn 0.1159 -0.9932 -0.0116
vn -0.0412 -0.9896 0.1378
vn -0.0034 -0.9987 -0.0507
vn -0.0033 -0.9976 -0.0692
vn 0.0503 -0.9950 -0.0864
vn 0.8928 -0.3608 0.2696
vn -0.3964 -0.4820 0.7814
vn -0.8784 -0.4703 -0.0855
vn -0.5746 -0.3304 -0.7488
vn 0.5346 -0.3304 -0.7779
vn 0.7866 -0.1418 0.6009
vn -0.6169 -0.2244 0.7544
vn -0.8054 -0.5789 0.1272
vn -0.3066 -0.1256 -0.9435
vn 0.3396 -0.4275 -0.8378
vn -0.1810 0.9121 0.3678
vn -0.5246 0.6663 0.5300
vn -0.5721 0.7854 -0.2365
vn -0.0516 0.9043 -0.4238
vn 0.3720 0.9091 -0.1875
vn 0.4479 0.8785 -0.1662
vn 0.4700 0.8580 -0.2074
vn 0.4419 0.8499 -0.2870
vn -0.1190 0.9229 -0.3661
vn -0.1240 0.9159 -0.3817
vn -0.3310 0.8554 -0.3985
vn -0.5056 0.8352 0.2164
vn -0.3713 0.8941 0.2507
vn -0.5334 0.7498 0.3915
vn 0.0978 0.7299 0.6765
vn 0.0851 0.9173 0.3890
vn 0.1885 0.8043 0.5635
vn 0.4035 0.7916 0.4589
vn -0.0883 0.9903 0.1069
vn 0.3783 0.9243 0.0502
vn 0.7444 0.3815 -0.5481
vn 0.3681 0.1995 -0.9081
vn 0.6567 0.0968 -0.7479
vn 0.2691 -0.1225 -0.9553
vn -0.2859 -0.3797 -0.8798
vn -0.3490 -0.3372 -0.8743
vn -0.8899 0.3489 -0.2940
vn -0.9764 0.0358 0.2128
vn -0.8545 0.2029 0.4782
vn -0.7518 -0.2370 0.6154
vn -0.5744 -0.4204 0.7024
vn 0.2420 0.3864 0.8900
vn 0.0964 0.1913 0.9768
vn 0.7485 -0.3359 0.5718
vn 0.8946 -0.2039 0.3977
vn 0.3060 -0.1389 -0.9418
vn 0.3035 -0.1876 -0.9342
vn 0.0247 -0.3304 -0.9435
vn -0.6766 -0.3733 -0.6347
vn -0.6982 -0.2589 -0.6674
vn -0.8016 -0.5879 0.1085
vn -0.4945 -0.1623 0.8539
vn -0.5001 0.0637 0.8636
vn -0.4530 0.0537 0.8899
vn 0.2895 0.3502 0.8908
vn 0.3035 -0.1876 0.9342
vn 0.5346 -0.3304 0.7779
vn 0.8767 -0.4808 -0.0169
vn 0.9774 -0.2104 -0.0188
vn 0.8213 -0.5008 -0.2733
vn 0.1148 -0.9895 0.0875
vn -0.0206 -0.9911 0.1317
vn -0.1414 -0.9893 -0.0347
vn 0.0940 -0.9893 -0.1112
vn 0.0946 -0.9955 0.0021
vn -0.4271 -0.8885 0.1681
vn -0.4271 -0.8885 -0.1681
vn -0.0192 -0.9990 -0.0392
vn -0.0113 -0.5908 0.8068
vn -0.0478 -0.9895 -0.1362
vn -0.1440 -0.9896 -0.0037
vn 0.1103 -0.9939 -0.0038
vn -0.4402 -0.6429 0.6268
vn 0.0899 -0.9918 -0.0913
vn 0.1184 -0.9896 -0.0817
vt 0.181819 0.000000
vt 0.227273 0.078731
vt 0.136365 0.078731
vt 0.272728 0.157461
vt 0.318182 0.078731
vt 0.363637 0.157461
vt 0.909091 0.000000
vt 0.954545 0.078731
vt 0.863636 0.078731
vt 0.727273 0.000000
vt 0.772727 0.078731
vt 0.681818 0.078731
vt 0.545455 0.000000
vt 0.590909 0.078731
vt 0.500000 0.078731
vt 0.318182 0.236191
vt 0.090910 0.157461
vt 0.181819 0.157461
vt 0.136365 0.236191
vt 0.818182 0.157461
vt 0.909091 0.157461
vt 0.863636 0.236191
vt 0.636364 0.157461
vt 0.727273 0.157461
vt 0.681818 0.236191
vt 0.454546 0.157461
vt 0.545455 0.157461
vt 0.500000 0.236191
vt 0.227273 0.236191
vt 0.045455 0.236191
vt 0.772727 0.236191
vt 0.590909 0.236191
vt 0.409092 0.236191
vt 0.181819 0.314921
vt 0.272728 0.314921
vt 0.227273 0.393651
vt 0.000000 0.314921
vt 0.090910 0.314921
vt 0.045455 0.393651
vt 0.727273 0.314921
vt 0.818182 0.314921
vt 0.772727 0.393651
vt 0.545455 0.314921
vt 0.636364 0.314921
vt 0.590909 0.393651
vt 0.363637 0.314921
vt 0.454546 0.314921
vt 0.409092 0.393651
vt 0.500000 0.393651
vt 0.454546 0.472382
vt 0.681818 0.393651
vt 0.636364 0.472382
vt 0.863636 0.393651
vt 0.818182 0.472382
vt 0.909091 0.314921
vt 0.136365 0.393651
vt 0.090910 0.472382
vt 0.318182 0.393651
vt 0.272728 0.472382
vt 0.954545 0.236191
vt 1.000000 0.157461
vt 0.409092 0.078731
vt 0.363637 0.000000
s 0
usemtl Material
f 1/1/1 14/2/1 13/3/1
f 2/4/2 14/5/2 16/6/2
f 1/7/3 13/8/3 18/9/3
f 1/10/4 18/11/4 20/12/4
f 1/13/5 20/14/5 17/15/5
f 2/4/6 16/6/6 23/16/6
f 3/17/7 15/18/7 25/19/7
f 4/20/8 19/21/8 27/22/8
f 5/23/9 21/24/9 29/25/9
f 6/26/10 22/27/10 31/28/10
f 2/4/11 23/16/11 26/29/11
f 3/17/12 25/19/12 28/30/12
f 4/20/13 27/22/13 30/31/13
f 5/23/14 29/25/14 32/32/14
f 6/26/15 31/28/15 24/33/15
f 7/34/16 33/35/16 38/36/16
f 8/37/17 34/38/17 40/39/17
f 9/40/18 35/41/18 41/42/18
f 10/43/19 36/44/19 42/45/19
f 11/46/20 37/47/20 39/48/20
f 39/48/21 42/49/21 12/50/21
f 39/48/22 37/47/22 42/49/22
f 37/47/23 10/43/23 42/49/23
f 42/45/24 41/51/24 12/52/24
f 42/45/25 36/44/25 41/51/25
f 36/44/26 9/40/26 41/51/26
f 41/42/27 40/53/27 12/54/27
f 41/42/28 35/41/28 40/53/28
f 35/41/29 8/55/29 40/53/29
f 40/39/30 38/56/30 12/57/30
f 40/39/31 34/38/31 38/56/31
f 34/38/32 7/34/32 38/56/32
f 38/36/33 39/58/33 12/59/33
f 38/36/34 33/35/34 39/58/34
f 33/35/35 11/46/35 39/58/35
f 24/33/36 37/47/36 11/46/36
f 24/33/37 31/28/37 37/47/37
f 31/28/38 10/43/38 37/47/38
f 32/32/39 36/44/39 10/43/39
f 32/32/40 29/25/40 36/44/40
f 29/25/41 9/40/41 36/44/41
f 30/31/42 35/41/42 9/40/42
f 30/31/43 27/22/43 35/41/43
f 27/22/44 8/55/44 35/41/44
f 28/30/45 34/38/45 8/37/45
f 28/30/46 25/19/46 34/38/46
f 25/19/47 7/34/47 34/38/47
f 26/29/48 33/35/48 7/34/48
f 26/29/49 23/16/49 33/35/49
f 23/16/50 11/46/50 33/35/50
f 31/28/51 32/32/51 10/43/51
f 31/28/52 22/27/52 32/32/52
f 22/27/53 5/23/53 32/32/53
f 29/25/54 30/31/54 9/40/54
f 29/25/55 21/24/55 30/31/55
f 21/24/56 4/20/56 30/31/56
f 27/22/57 28/60/57 8/55/57
f 27/22/58 19/21/58 28/60/58
f 19/21/59 3/61/59 28/60/59
f 25/19/60 26/29/60 7/34/60
f 25/19/61 15/18/61 26/29/61
f 15/18/62 2/4/62 26/29/62
f 23/16/63 24/33/63 11/46/63
f 23/16/64 16/6/64 24/33/64
f 16/6/65 6/26/65 24/33/65
f 17/15/66 22/27/66 6/26/66
f 17/15/67 20/14/67 22/27/67
f 20/14/68 5/23/68 22/27/68
f 20/12/69 21/24/69 5/23/69
f 20/12/70 18/11/70 21/24/70
f 18/11/71 4/20/71 21/24/71
f 18/9/72 19/21/72 4/20/72
f 18/9/73 13/8/73 19/21/73
f 13/8/74 3/61/74 19/21/74
f 16/6/75 17/62/75 6/26/75
f 16/6/76 14/5/76 17/62/76
f 14/5/77 1/63/77 17/62/77
f 13/3/78 15/18/78 3/17/78
f 13/3/79 14/2/79 15/18/79
f 14/2/80 2/4/80 15/18/80
